<?xml version="1.0" encoding="utf-8"?>
<!-- Generator: Adobe Illustrator 16.0.0, SVG Export Plug-In . SVG Version: 6.00 Build 0)  -->
<!DOCTYPE svg PUBLIC "-//W3C//DTD SVG 1.1//EN" "http://www.w3.org/Graphics/SVG/1.1/DTD/svg11.dtd">
<svg version="1.1" id="Layer_1" xmlns="http://www.w3.org/2000/svg" xmlns:xlink="http://www.w3.org/1999/xlink" x="0px" y="0px"
	 width="360.721px" height="72.04px" viewBox="0 0 360.721 72.04" enable-background="new 0 0 360.721 72.04" xml:space="preserve">
<g id="Text">
	<g id="Layer_1_1_">
	</g>
	<g id="Layer_2">
	</g>
	<g enable-background="new    ">
		<path d="M114.761,21.512l-1.577,3.59c-1.686-1.36-4.568-2.23-6.743-2.23c-3.154,0-7.015,1.359-7.015,5.112
			c0,5.982,15.988,4.296,15.988,14.466c0,6.525-4.895,10.604-11.257,10.604c-3.535,0-8.048-1.196-10.876-3.372l2.012-4.133
			c1.958,1.469,6.091,3.1,8.484,3.1c3.372,0,6.797-1.686,6.797-5.438c0-7.232-15.879-5.438-15.879-15.39
			c0-6.417,5.602-9.137,11.257-9.137C108.888,18.684,112.532,19.5,114.761,21.512z"/>
		<path d="M127.976,16.944l0.055,7.614h8.157v3.86h-8.157c0,4.46,0.054,8.919,0.054,13.324c0,2.719,0.218,7.232,3.861,7.232
			c1.033,0,2.066-0.381,2.937-0.979l1.468,3.426c-1.414,0.979-3.1,1.577-4.84,1.577c-5.493,0-7.777-5.329-7.777-10.115V28.418
			h-3.861v-3.86h3.861v-7.614H127.976z"/>
		<path d="M145.977,24.558v13.976c0,4.405,0.381,10.115,6.037,10.115c5.329,0,6.58-5.873,6.58-10.115V24.558h4.351V52.51h-4.351
			v-4.677c-1.142,3.372-4.514,5.221-7.94,5.221c-6.798,0-8.973-5.71-8.973-11.584c0-5.655-0.054-11.257-0.054-16.912H145.977z"/>
		<path d="M188.45,26.733v-12.29h4.242V52.51h-4.242v-2.339c-2.175,1.903-4.568,2.938-7.449,2.938
			c-7.832,0-12.074-7.94-12.074-14.956c0-7.722,4.024-14.193,12.345-14.193C183.719,23.959,186.71,24.993,188.45,26.733z
			 M173.767,38.099c0,5.111,2.393,10.876,8.32,10.876c2.339,0,4.948-1.25,6.362-3.1V31.138c-1.142-1.687-4.404-2.883-6.416-2.883
			C175.845,28.255,173.767,33.205,173.767,38.099z"/>
		<path d="M203.352,24.558l6.797,20.665l6.799-20.665h4.514c-3.209,9.408-6.037,18.925-9.518,28.224
			c-1.414,3.861-3.263,9.789-8.32,9.789c-1.305,0-3.807-0.707-4.84-1.577l1.686-3.371c0.871,0.489,1.85,0.924,2.883,0.924
			c2.664,0,4.188-5.058,4.568-7.124l-9.246-26.864H203.352z"/>
	</g>
	<g enable-background="new    ">
		<path fill="#3D89C9" d="M255.231,22.165l-1.959,3.916c-1.957-1.795-5.002-2.937-7.613-2.937c-7.123,0-11.855,5.873-11.855,12.726
			c0,6.852,4.732,12.725,11.855,12.725c2.611,0,5.656-1.142,7.613-2.937l1.959,3.971C252.729,51.858,248.65,53,245.387,53
			c-9.571,0-16.369-7.831-16.369-17.13c0-9.3,6.798-17.186,16.369-17.186C248.65,18.684,252.729,19.881,255.231,22.165z"/>
		<path fill="#3D89C9" d="M285.25,49.519l-1.632,3.535c-2.283-0.055-4.188-1.359-5.166-3.372c-2.175,2.176-5.221,3.372-8.266,3.372
			c-5.765,0-9.518-3.807-9.518-9.571c0-5.166,4.46-9.68,9.518-9.68c3.045,0,5.547,0.979,7.287,2.393
			c-0.109-3.916-1.359-8.212-6.58-8.212c-2.665,0-5.221,1.251-7.232,2.937l-1.523-3.263c2.284-2.284,5.818-3.698,9.082-3.698
			C287.915,23.959,277.583,49.628,285.25,49.519z M265.02,43.483c0,3.426,2.447,5.655,5.928,5.655c2.447,0,5.111-1.033,6.742-2.937
			l-0.162-5.928c-1.578-1.631-3.59-2.393-6.58-2.393C267.902,37.881,265.02,40.383,265.02,43.483z"/>
		<path fill="#3D89C9" d="M294.714,24.558v4.677c1.033-3.046,4.35-5.221,7.559-5.221c1.143,0,2.284,0.326,3.426,0.598l-2.121,4.568
			c-0.707-0.271-1.414-0.435-2.175-0.435c-5.167,0-6.688,5.274-6.688,9.571V52.51h-4.405V24.558H294.714z"/>
		<path fill="#3D89C9" d="M326.528,26.733v-12.29h4.241V52.51h-4.241v-2.339c-2.176,1.903-4.568,2.938-7.451,2.938
			c-7.831,0-12.072-7.94-12.072-14.956c0-7.722,4.023-14.193,12.344-14.193C321.796,23.959,324.788,24.993,326.528,26.733z
			 M311.844,38.099c0,5.111,2.393,10.876,8.32,10.876c2.338,0,4.949-1.25,6.363-3.1V31.138c-1.143-1.687-4.405-2.883-6.418-2.883
			C313.923,28.255,311.844,33.205,311.844,38.099z"/>
		<path fill="#3D89C9" d="M356.112,26.625l-1.523,3.208c-1.468-1.25-3.86-1.903-5.764-1.903c-2.339,0-5.819,1.359-5.819,4.024
			c0,5.384,13.649,2.991,13.649,12.617c0,5.492-4.622,8.483-9.734,8.483c-3.1,0-6.961-1.033-9.462-2.883l1.903-3.807
			c1.85,1.414,4.568,2.61,6.906,2.61c2.72,0,6.037-1.468,6.037-4.459c0-6.526-13.541-3.589-13.596-12.563
			c0-5.221,4.677-7.994,9.463-7.994C350.674,23.959,354.427,24.721,356.112,26.625z"/>
	</g>
</g>
<g id="Cards" display="none">
	<g display="inline">
		<path fill="#3D89C9" d="M46.401,63.139c0.29,1.531-0.727,3.021-2.258,3.313l-26.737,5.062c-1.532,0.29-3.022-0.726-3.313-2.259
			L2.957,10.418c-0.29-1.532,0.727-3.022,2.258-3.313l26.736-5.061c1.532-0.29,3.022,0.726,3.313,2.258L46.401,63.139z"/>
	</g>
	<path display="inline" fill="#3D89C9" d="M63.824,13.328L44.451,6.591l-3.248-1.129l4.998,26.403l4.471,23.617
		c0,0.001,0,0.001,0.001,0.002l0.526,2.783l12.192-35.063l0,0l2.18-6.269C66.083,15.463,65.297,13.84,63.824,13.328z"/>
	<g display="inline">
		<path fill="#3D89C9" d="M78.377,37.54l-8.146-9.438C70.23,28.1,70.23,28.1,70.229,28.099l-1.852-2.144l-5.993,17.153
			l-5.058,14.477c-0.001,0.002-0.001,0.004-0.002,0.008l-0.933,2.668l3.112-2.686l18.578-16.037
			C79.264,40.519,79.396,38.719,78.377,37.54z"/>
	</g>
</g>
<g id="Cards_copy">
	<g>
		<path fill="#3D89C9" d="M46.401,63.139c0.29,1.531-0.727,3.021-2.258,3.313l-26.737,5.062c-1.532,0.29-3.022-0.726-3.313-2.259
			L2.957,10.418c-0.29-1.532,0.727-3.022,2.258-3.313l26.736-5.061c1.532-0.29,3.022,0.726,3.313,2.258L46.401,63.139z"/>
	</g>
	<path fill="#3D89C9" d="M65.824,13.328L46.451,6.591l-2.146-0.747l9.88,49.591l11.208-32.231l2.18-6.269
		C68.083,15.463,67.297,13.84,65.824,13.328z"/>
	<g>
		<path fill="#3D89C9" d="M72.021,30.174l-8.404,23.852l14.468-12.488c1.181-1.02,1.313-2.818,0.293-3.998L72.021,30.174z"/>
	</g>
</g>
</svg>
