<?xml version="1.0" encoding="utf-8"?>
<!-- Generator: Adobe Illustrator 16.0.0, SVG Export Plug-In . SVG Version: 6.00 Build 0)  -->
<!DOCTYPE svg PUBLIC "-//W3C//DTD SVG 1.1//EN" "http://www.w3.org/Graphics/SVG/1.1/DTD/svg11.dtd">
<svg version="1.1" xmlns="http://www.w3.org/2000/svg" xmlns:xlink="http://www.w3.org/1999/xlink" x="0px" y="0px"
	 width="360.72px" height="72.04px" viewBox="0 0 360.72 72.04" enable-background="new 0 0 360.72 72.04" xml:space="preserve">
<g id="Text">
	<g id="Layer_1">
	</g>
	<g id="Layer_2">
	</g>
	<g>
		<path fill="#4B4A4B" d="M98.231,51.043c-2.33-0.765-4.191-1.793-5.585-3.086c-0.51-0.476-0.765-1.071-0.765-1.785
			c0-0.476,0.135-0.893,0.408-1.25c0.271-0.357,0.594-0.536,0.969-0.536c0.441,0,0.918,0.188,1.428,0.561
			c3.162,2.448,6.766,3.672,10.813,3.672c2.924,0,5.168-0.561,6.731-1.683c1.563-1.122,2.347-2.72,2.347-4.794
			c0-1.189-0.375-2.15-1.123-2.881c-0.748-0.731-1.733-1.317-2.957-1.759c-1.225-0.442-2.874-0.901-4.947-1.377
			c-2.789-0.645-5.074-1.326-6.859-2.04c-1.785-0.714-3.23-1.734-4.336-3.06c-1.104-1.326-1.656-3.06-1.656-5.202
			c0-2.04,0.552-3.851,1.656-5.432c1.105-1.581,2.652-2.805,4.642-3.672s4.259-1.3,6.809-1.3c2.38,0,4.599,0.366,6.655,1.096
			c2.057,0.731,3.782,1.777,5.177,3.137c0.544,0.544,0.815,1.14,0.815,1.785c0,0.477-0.136,0.893-0.407,1.25
			c-0.272,0.357-0.596,0.536-0.97,0.536s-0.867-0.187-1.479-0.561c-1.666-1.359-3.213-2.312-4.641-2.856
			c-1.428-0.543-3.146-0.816-5.151-0.816c-2.823,0-5.016,0.586-6.579,1.759c-1.564,1.173-2.346,2.814-2.346,4.922
			c0,1.802,0.688,3.154,2.065,4.054c1.377,0.901,3.493,1.692,6.35,2.372c3.093,0.749,5.524,1.437,7.293,2.065
			c1.767,0.629,3.238,1.573,4.411,2.831c1.174,1.258,1.76,2.941,1.76,5.049c0,2.007-0.553,3.774-1.658,5.304
			c-1.104,1.53-2.66,2.721-4.666,3.57c-2.006,0.851-4.301,1.275-6.885,1.275C102.999,52.191,100.56,51.808,98.231,51.043z"/>
		<path fill="#4B4A4B" d="M138.036,50.406c0,0.579-0.213,1.012-0.637,1.3c-0.426,0.289-1.063,0.399-1.912,0.332l-1.377-0.102
			c-2.721-0.204-4.727-1.02-6.019-2.448c-1.292-1.428-1.938-3.587-1.938-6.477V30.209h-3.416c-0.579,0-1.029-0.144-1.352-0.433
			c-0.324-0.289-0.484-0.671-0.484-1.147c0-0.51,0.16-0.918,0.484-1.224c0.322-0.306,0.772-0.459,1.352-0.459h3.416v-5.763
			c0-0.646,0.188-1.147,0.562-1.504s0.884-0.536,1.53-0.536c0.611,0,1.104,0.179,1.479,0.536c0.373,0.357,0.561,0.859,0.561,1.504
			v5.763h5.662c0.543,0,0.977,0.153,1.3,0.459s0.484,0.714,0.484,1.224c0,0.477-0.161,0.859-0.484,1.147
			c-0.323,0.289-0.757,0.433-1.3,0.433h-5.662v13.005c0,1.87,0.383,3.222,1.148,4.054c0.765,0.833,1.912,1.301,3.441,1.403
			l1.377,0.102C137.441,48.875,138.036,49.42,138.036,50.406z"/>
		<path fill="#4B4A4B" d="M162.491,26.997c0.357,0.375,0.535,0.867,0.535,1.479v21.573c0,0.579-0.178,1.054-0.535,1.428
			c-0.357,0.374-0.859,0.561-1.505,0.561c-0.612,0-1.097-0.178-1.453-0.535c-0.357-0.357-0.536-0.824-0.536-1.403v-2.55
			c-0.782,1.497-1.879,2.635-3.289,3.417c-1.411,0.782-3.001,1.173-4.769,1.173c-2.958,0-5.185-0.824-6.681-2.474
			c-1.496-1.648-2.244-4.088-2.244-7.318V28.476c0-0.612,0.187-1.104,0.561-1.479c0.374-0.374,0.885-0.561,1.53-0.561
			s1.147,0.188,1.505,0.561c0.356,0.375,0.535,0.867,0.535,1.479v13.77c0,2.21,0.441,3.834,1.326,4.871
			c0.884,1.038,2.277,1.556,4.182,1.556c2.176,0,3.928-0.706,5.254-2.117c1.325-1.411,1.988-3.272,1.988-5.584V28.476
			c0-0.612,0.187-1.104,0.561-1.479c0.374-0.374,0.885-0.561,1.53-0.561S162.134,26.623,162.491,26.997z"/>
		<path fill="#4B4A4B" d="M192.198,16.134c0.373,0.375,0.561,0.85,0.561,1.428v32.436c0,0.612-0.188,1.105-0.561,1.479
			c-0.375,0.374-0.885,0.561-1.53,0.561c-0.646,0-1.147-0.187-1.505-0.561c-0.357-0.374-0.535-0.867-0.535-1.479v-2.754
			c-0.748,1.564-1.845,2.771-3.289,3.621c-1.445,0.85-3.137,1.275-5.075,1.275c-2.177,0-4.097-0.543-5.763-1.632
			c-1.666-1.088-2.958-2.609-3.876-4.564c-0.918-1.955-1.377-4.225-1.377-6.809c0-2.55,0.459-4.794,1.377-6.732
			s2.21-3.434,3.876-4.488c1.666-1.053,3.586-1.581,5.763-1.581c1.938,0,3.63,0.426,5.075,1.275c1.444,0.85,2.541,2.057,3.289,3.621
			V17.562c0-0.612,0.178-1.096,0.535-1.453c0.357-0.357,0.858-0.536,1.505-0.536C191.313,15.573,191.823,15.76,192.198,16.134z
			 M186.665,46.249c1.308-1.648,1.963-3.986,1.963-7.012c0-3.026-0.655-5.355-1.963-6.987c-1.311-1.632-3.172-2.448-5.585-2.448
			c-2.415,0-4.293,0.816-5.636,2.448c-1.344,1.632-2.015,3.927-2.015,6.885c0,3.026,0.671,5.38,2.015,7.063
			c1.343,1.683,3.221,2.524,5.636,2.524C183.493,48.723,185.354,47.899,186.665,46.249z"/>
		<path fill="#4B4A4B" d="M220.095,26.487c0.51,0,0.969,0.17,1.377,0.51c0.407,0.34,0.611,0.765,0.611,1.275
			c0,0.306-0.068,0.579-0.204,0.816l-14.331,30.906c-0.17,0.374-0.416,0.663-0.739,0.867s-0.655,0.306-0.995,0.306
			c-0.51,0-0.961-0.162-1.352-0.484c-0.391-0.323-0.586-0.739-0.586-1.25c0-0.272,0.068-0.544,0.204-0.816l3.569-7.701
			l-10.098-21.828c-0.137-0.238-0.203-0.493-0.203-0.765c0-0.51,0.229-0.952,0.688-1.326c0.459-0.374,0.961-0.561,1.505-0.561
			c0.339,0,0.671,0.102,0.995,0.306c0.322,0.204,0.568,0.493,0.738,0.867l8.518,19.125l8.518-19.023
			C218.683,26.895,219.278,26.487,220.095,26.487z"/>
		<path fill="#3D89C9" d="M233.659,49.972c-2.481-1.479-4.395-3.604-5.736-6.375c-1.344-2.771-2.016-6.043-2.016-9.817
			c0-3.74,0.672-6.995,2.016-9.767c1.342-2.771,3.255-4.896,5.736-6.375c2.482-1.479,5.424-2.218,8.824-2.218
			c2.277,0,4.428,0.366,6.451,1.096c2.022,0.731,3.781,1.777,5.278,3.137c0.544,0.51,0.815,1.105,0.815,1.785
			c0,0.477-0.136,0.893-0.407,1.25c-0.272,0.357-0.596,0.536-0.97,0.536c-0.408,0-0.9-0.187-1.479-0.561
			c-1.734-1.359-3.307-2.312-4.717-2.856c-1.412-0.543-3.035-0.816-4.871-0.816c-3.945,0-6.979,1.284-9.104,3.851
			c-2.125,2.567-3.188,6.214-3.188,10.939c0,4.76,1.063,8.424,3.188,10.99c2.125,2.568,5.158,3.851,9.104,3.851
			c1.802,0,3.417-0.271,4.845-0.816c1.429-0.543,3.009-1.496,4.743-2.856c0.578-0.374,1.07-0.561,1.479-0.561
			c0.374,0,0.697,0.17,0.97,0.51c0.271,0.34,0.407,0.765,0.407,1.275c0,0.68-0.271,1.275-0.815,1.785
			c-1.497,1.36-3.256,2.406-5.278,3.137c-2.023,0.73-4.174,1.097-6.451,1.097C239.083,52.191,236.142,51.451,233.659,49.972z"/>
		<path fill="#3D89C9" d="M280.12,36.125v13.872c0,0.612-0.178,1.105-0.535,1.479c-0.357,0.374-0.842,0.561-1.453,0.561
			c-0.612,0-1.105-0.187-1.479-0.561c-0.374-0.374-0.561-0.867-0.561-1.479V47.55c-0.646,1.462-1.632,2.593-2.958,3.392
			c-1.326,0.799-2.856,1.198-4.59,1.198c-1.599,0-3.069-0.323-4.412-0.969c-1.344-0.646-2.405-1.547-3.188-2.703
			c-0.782-1.156-1.173-2.431-1.173-3.825c0-1.869,0.476-3.323,1.428-4.36c0.952-1.037,2.516-1.785,4.692-2.244
			c2.176-0.459,5.202-0.688,9.078-0.688h1.122v-1.683c0-2.04-0.417-3.536-1.25-4.488c-0.833-0.952-2.185-1.428-4.055-1.428
			c-2.313,0-4.658,0.63-7.038,1.887c-0.918,0.579-1.563,0.867-1.938,0.867c-0.408,0-0.748-0.153-1.021-0.459
			c-0.272-0.306-0.407-0.697-0.407-1.173c0-0.476,0.144-0.893,0.434-1.25c0.288-0.357,0.756-0.722,1.402-1.096
			c1.189-0.68,2.541-1.215,4.055-1.606c1.512-0.391,3.017-0.587,4.513-0.587C277.01,26.333,280.12,29.598,280.12,36.125z
			 M274.128,46.81c1.309-1.377,1.964-3.153,1.964-5.329v-1.479h-0.918c-2.992,0-5.271,0.127-6.834,0.382
			c-1.564,0.255-2.678,0.681-3.341,1.275c-0.663,0.595-0.994,1.471-0.994,2.626c0,1.326,0.484,2.422,1.453,3.29s2.185,1.3,3.646,1.3
			C271.145,48.875,272.818,48.187,274.128,46.81z"/>
		<path fill="#3D89C9" d="M302.102,28.17c0,0.544-0.152,0.978-0.459,1.3c-0.306,0.324-0.833,0.519-1.581,0.586l-1.529,0.153
			c-2.278,0.204-3.971,1.012-5.075,2.423c-1.105,1.411-1.657,3.069-1.657,4.972v12.393c0,0.681-0.188,1.191-0.562,1.53
			s-0.866,0.51-1.479,0.51s-1.114-0.178-1.505-0.535c-0.391-0.357-0.586-0.858-0.586-1.505V28.476c0-0.646,0.204-1.147,0.611-1.504
			c0.408-0.357,0.901-0.536,1.479-0.536c0.543,0,1.003,0.179,1.377,0.536s0.561,0.841,0.561,1.454v2.856
			c0.715-1.496,1.726-2.634,3.035-3.417c1.309-0.782,2.813-1.241,4.514-1.377l0.714-0.051
			C301.388,26.333,302.102,26.912,302.102,28.17z"/>
		<path fill="#3D89C9" d="M326.632,16.134c0.374,0.375,0.562,0.85,0.562,1.428v32.436c0,0.612-0.188,1.105-0.562,1.479
			c-0.374,0.374-0.885,0.561-1.53,0.561s-1.147-0.187-1.504-0.561c-0.357-0.374-0.536-0.867-0.536-1.479v-2.754
			c-0.748,1.564-1.845,2.771-3.289,3.621c-1.445,0.85-3.137,1.275-5.074,1.275c-2.177,0-4.098-0.543-5.764-1.632
			c-1.666-1.088-2.958-2.609-3.876-4.564c-0.918-1.955-1.377-4.225-1.377-6.809c0-2.55,0.459-4.794,1.377-6.732
			s2.21-3.434,3.876-4.488c1.666-1.053,3.587-1.581,5.764-1.581c1.938,0,3.629,0.426,5.074,1.275
			c1.444,0.85,2.541,2.057,3.289,3.621V17.562c0-0.612,0.179-1.096,0.536-1.453c0.356-0.357,0.858-0.536,1.504-0.536
			S326.258,15.76,326.632,16.134z M321.099,46.249c1.309-1.648,1.963-3.986,1.963-7.012c0-3.026-0.654-5.355-1.963-6.987
			c-1.31-1.632-3.171-2.448-5.585-2.448s-4.293,0.816-5.635,2.448c-1.344,1.632-2.015,3.927-2.015,6.885
			c0,3.026,0.671,5.38,2.015,7.063c1.342,1.683,3.221,2.524,5.635,2.524S319.789,47.899,321.099,46.249z"/>
		<path fill="#3D89C9" d="M338.744,51.579c-1.411-0.374-2.661-0.9-3.749-1.581c-0.611-0.408-1.045-0.791-1.3-1.147
			s-0.383-0.791-0.383-1.3c0-0.441,0.128-0.807,0.383-1.097c0.255-0.289,0.586-0.434,0.994-0.434s1.003,0.255,1.785,0.765
			c1.02,0.612,2.031,1.097,3.034,1.454s2.252,0.536,3.749,0.536c1.836,0,3.264-0.323,4.284-0.969
			c1.02-0.646,1.529-1.581,1.529-2.805c0-0.747-0.187-1.351-0.561-1.81c-0.375-0.459-1.021-0.867-1.938-1.224
			s-2.261-0.722-4.028-1.097c-2.992-0.646-5.135-1.512-6.427-2.601c-1.292-1.087-1.938-2.566-1.938-4.437
			c0-1.461,0.408-2.754,1.224-3.876c0.816-1.122,1.946-2.005,3.392-2.652c1.445-0.646,3.086-0.969,4.922-0.969
			c1.326,0,2.608,0.179,3.851,0.536c1.24,0.357,2.337,0.859,3.289,1.504c1.155,0.816,1.734,1.667,1.734,2.55
			c0,0.442-0.137,0.816-0.408,1.122c-0.272,0.306-0.596,0.459-0.969,0.459c-0.408,0-1.021-0.289-1.836-0.867
			c-0.952-0.612-1.854-1.088-2.703-1.428c-0.851-0.339-1.904-0.51-3.162-0.51c-1.599,0-2.882,0.357-3.851,1.071
			c-0.969,0.714-1.453,1.667-1.453,2.856c0,0.748,0.178,1.351,0.535,1.81s0.951,0.867,1.785,1.224
			c0.832,0.357,2.031,0.706,3.596,1.045c2.312,0.51,4.105,1.071,5.38,1.683c1.275,0.612,2.185,1.36,2.729,2.244
			c0.544,0.884,0.816,2.006,0.816,3.366c0,2.142-0.901,3.868-2.703,5.177c-1.803,1.309-4.182,1.963-7.14,1.963
			C341.643,52.14,340.154,51.953,338.744,51.579z"/>
	</g>
</g>
<g id="Cards">
	<g>
		<path fill="#3D89C9" d="M46.401,63.139c0.29,1.532-0.726,3.022-2.258,3.313l-26.737,5.061c-1.532,0.29-3.022-0.726-3.313-2.258
			L2.957,10.418c-0.29-1.532,0.726-3.022,2.258-3.313l26.736-5.061c1.532-0.29,3.022,0.726,3.313,2.258L46.401,63.139z"/>
	</g>
	<path fill="#3D89C9" d="M64.065,13.123L44.692,6.387l-3.248-1.129l4.998,26.403l4.471,23.617c0,0.001,0,0.001,0.001,0.002
		l0.526,2.783L63.633,23l0,0l2.18-6.269C66.324,15.259,65.538,13.635,64.065,13.123z"/>
	<g>
		<path fill="#3D89C9" d="M78.377,37.539l-8.146-9.438c-0.001-0.001-0.001-0.001-0.002-0.002l-1.851-2.144l-5.993,17.153
			l-5.058,14.477c-0.001,0.002-0.001,0.004-0.002,0.007l-0.933,2.669l3.113-2.687l18.578-16.037
			C79.264,40.519,79.396,38.719,78.377,37.539z"/>
	</g>
</g>
</svg>
