<?xml version="1.0" encoding="utf-8"?>
<!-- Generator: Adobe Illustrator 16.0.0, SVG Export Plug-In . SVG Version: 6.00 Build 0)  -->
<!DOCTYPE svg PUBLIC "-//W3C//DTD SVG 1.1//EN" "http://www.w3.org/Graphics/SVG/1.1/DTD/svg11.dtd">
<svg version="1.1" xmlns="http://www.w3.org/2000/svg" xmlns:xlink="http://www.w3.org/1999/xlink" x="0px" y="0px"
	 width="360.72px" height="72.04px" viewBox="0 0 360.72 72.04" enable-background="new 0 0 360.72 72.04" xml:space="preserve">
<g id="Text" display="none">
	<g id="Layer_1" display="inline">
		<path fill="#3D89C9" d="M-195.218,80c-1.051,6.627-7.274,12-13.901,12h-183.5c-6.628,0-11.149-5.373-10.099-12l8.875-56
			c1.051-6.627,7.274-12,13.902-12h183.5c6.627,0,11.148,5.373,10.098,12L-195.218,80z"/>
	</g>
	<g id="Layer_2" display="inline">
		<text transform="matrix(1 0 0 1 -587.7803 75.5)"><tspan x="0" y="0" font-family="'IBMPlexSans-Italic'" font-size="72">Study </tspan><tspan x="198.861" y="0" fill="#FFFFFF" font-family="'IBMPlexSans-Italic'" font-size="72">Cards</tspan></text>
		<path fill="#3D89C9" d="M-195.218,200c-1.051,6.627-7.274,12-13.901,12h-183.5c-6.628,0-11.149-5.373-10.099-12l8.875-56
			c1.051-6.627,7.274-12,13.902-12h183.5c6.627,0,11.148,5.373,10.098,12L-195.218,200z"/>
		<text transform="matrix(1 0 0 1 -595.7803 195.5)"><tspan x="0" y="0" font-family="'IBMPlexSans-BoldItalic'" font-size="72">Study </tspan><tspan x="205.771" y="0" fill="#FFFFFF" font-family="'IBMPlexSans-BoldItalic'" font-size="72">Cards</tspan></text>
	</g>
	<g display="inline">
		<path fill="#3D89C9" d="M-527.173,336.547c-2.353,2.046-5.952,1.795-7.998-0.558l-18.083-20.796
			c-2.046-2.353-1.795-5.952,0.558-7.999l25.981-22.592c2.353-2.046,5.952-1.795,7.998,0.558l18.083,20.795
			c2.046,2.353,1.795,5.953-0.558,7.999L-527.173,336.547z"/>
		<path fill="none" stroke="#FFFFFF" stroke-width="6" stroke-miterlimit="10" d="M-527.173,336.547
			c-2.353,2.046-5.952,1.795-7.998-0.558l-18.083-20.796c-2.046-2.353-1.795-5.952,0.558-7.999l25.981-22.592
			c2.353-2.046,5.952-1.795,7.998,0.558l18.083,20.795c2.046,2.353,1.795,5.953-0.558,7.999L-527.173,336.547z"/>
	</g>
	<g display="inline">
		<path fill="#3D89C9" d="M-529.637,334.896c-1.015,2.948-4.257,4.531-7.206,3.516l-26.058-8.968
			c-2.949-1.015-4.531-4.257-3.516-7.206l16.171-46.988c1.015-2.949,4.257-4.531,7.206-3.516l26.058,8.968
			c2.949,1.015,4.531,4.257,3.516,7.206L-529.637,334.896z"/>
		<path fill="none" stroke="#FFFFFF" stroke-width="6" stroke-miterlimit="10" d="M-529.637,334.896
			c-1.015,2.948-4.257,4.531-7.206,3.516l-26.058-8.968c-2.949-1.015-4.531-4.257-3.516-7.206l16.171-46.988
			c1.015-2.949,4.257-4.531,7.206-3.516l26.058,8.968c2.949,1.015,4.531,4.257,3.516,7.206L-529.637,334.896z"/>
	</g>
	<g display="inline">
		<path fill="#3D89C9" d="M-531.807,332.798c0.595,3.061-1.422,6.052-4.482,6.647l-27.051,5.262
			c-3.061,0.595-6.052-1.422-6.647-4.482l-11.481-59.015c-0.595-3.061,1.422-6.052,4.482-6.647l27.051-5.263
			c3.061-0.595,6.052,1.422,6.647,4.482L-531.807,332.798z"/>
		<path fill="none" stroke="#FFFFFF" stroke-width="6" stroke-miterlimit="10" d="M-531.807,332.798
			c0.595,3.061-1.422,6.052-4.482,6.647l-27.051,5.262c-3.061,0.595-6.052-1.422-6.647-4.482l-11.481-59.015
			c-0.595-3.061,1.422-6.052,4.482-6.647l27.051-5.263c3.061-0.595,6.052,1.422,6.647,4.482L-531.807,332.798z"/>
	</g>
	<text transform="matrix(1 0 0 1 -491.9141 322)" display="inline"><tspan x="0" y="0" font-family="'InconsolataForPowerline'" font-size="51">Study</tspan><tspan x="127.5" y="0" fill="#3D89C9" font-family="'InconsolataForPowerline'" font-size="51">Cards</tspan></text>
	<g display="inline">
		<path fill="#4B4A4B" d="M98.231,51.043c-2.33-0.765-4.191-1.793-5.585-3.086c-0.51-0.476-0.765-1.071-0.765-1.785
			c0-0.476,0.135-0.893,0.408-1.25c0.271-0.357,0.594-0.536,0.969-0.536c0.441,0,0.918,0.188,1.428,0.561
			c3.162,2.448,6.766,3.672,10.813,3.672c2.924,0,5.168-0.561,6.731-1.683c1.563-1.122,2.347-2.72,2.347-4.794
			c0-1.189-0.375-2.15-1.123-2.881c-0.748-0.731-1.733-1.317-2.957-1.759c-1.225-0.442-2.874-0.901-4.947-1.377
			c-2.789-0.645-5.074-1.326-6.859-2.04c-1.785-0.714-3.23-1.734-4.336-3.06c-1.104-1.326-1.656-3.06-1.656-5.202
			c0-2.04,0.552-3.851,1.656-5.432c1.105-1.581,2.652-2.805,4.642-3.672s4.259-1.3,6.809-1.3c2.38,0,4.599,0.366,6.655,1.096
			c2.057,0.731,3.782,1.777,5.177,3.137c0.544,0.544,0.815,1.14,0.815,1.785c0,0.477-0.136,0.893-0.407,1.25
			c-0.272,0.357-0.596,0.536-0.97,0.536s-0.867-0.187-1.479-0.561c-1.666-1.359-3.213-2.312-4.641-2.856
			c-1.428-0.543-3.146-0.816-5.151-0.816c-2.823,0-5.016,0.586-6.579,1.759c-1.564,1.173-2.346,2.814-2.346,4.922
			c0,1.802,0.688,3.154,2.065,4.054c1.377,0.901,3.493,1.692,6.35,2.372c3.093,0.749,5.524,1.437,7.293,2.065
			c1.767,0.629,3.238,1.573,4.411,2.831c1.174,1.258,1.76,2.941,1.76,5.049c0,2.007-0.553,3.774-1.658,5.304
			c-1.104,1.53-2.66,2.721-4.666,3.57c-2.006,0.851-4.301,1.275-6.885,1.275C102.999,52.191,100.56,51.808,98.231,51.043z"/>
		<path fill="#4B4A4B" d="M138.036,50.406c0,0.579-0.213,1.012-0.637,1.3c-0.426,0.289-1.063,0.399-1.912,0.332l-1.377-0.102
			c-2.721-0.204-4.727-1.02-6.019-2.448c-1.292-1.428-1.938-3.587-1.938-6.477V30.209h-3.416c-0.579,0-1.029-0.144-1.352-0.433
			c-0.324-0.289-0.484-0.671-0.484-1.147c0-0.51,0.16-0.918,0.484-1.224c0.322-0.306,0.772-0.459,1.352-0.459h3.416v-5.763
			c0-0.646,0.188-1.147,0.562-1.504s0.884-0.536,1.53-0.536c0.611,0,1.104,0.179,1.479,0.536c0.373,0.357,0.561,0.859,0.561,1.504
			v5.763h5.662c0.543,0,0.977,0.153,1.3,0.459s0.484,0.714,0.484,1.224c0,0.477-0.161,0.859-0.484,1.147
			c-0.323,0.289-0.757,0.433-1.3,0.433h-5.662v13.005c0,1.87,0.383,3.222,1.148,4.054c0.765,0.833,1.912,1.301,3.441,1.403
			l1.377,0.102C137.441,48.875,138.036,49.42,138.036,50.406z"/>
		<path fill="#4B4A4B" d="M162.491,26.997c0.357,0.375,0.535,0.867,0.535,1.479v21.573c0,0.579-0.178,1.054-0.535,1.428
			c-0.357,0.374-0.859,0.561-1.505,0.561c-0.612,0-1.097-0.178-1.453-0.535c-0.357-0.357-0.536-0.824-0.536-1.403v-2.55
			c-0.782,1.497-1.879,2.635-3.289,3.417c-1.411,0.782-3.001,1.173-4.769,1.173c-2.958,0-5.185-0.824-6.681-2.474
			c-1.496-1.648-2.244-4.088-2.244-7.318V28.476c0-0.612,0.187-1.104,0.561-1.479c0.374-0.374,0.885-0.561,1.53-0.561
			s1.147,0.188,1.505,0.561c0.356,0.375,0.535,0.867,0.535,1.479v13.77c0,2.21,0.441,3.834,1.326,4.871
			c0.884,1.038,2.277,1.556,4.182,1.556c2.176,0,3.928-0.706,5.254-2.117c1.325-1.411,1.988-3.272,1.988-5.584V28.476
			c0-0.612,0.187-1.104,0.561-1.479c0.374-0.374,0.885-0.561,1.53-0.561S162.134,26.623,162.491,26.997z"/>
		<path fill="#4B4A4B" d="M192.198,16.134c0.373,0.375,0.561,0.85,0.561,1.428v32.436c0,0.612-0.188,1.105-0.561,1.479
			c-0.375,0.374-0.885,0.561-1.53,0.561c-0.646,0-1.147-0.187-1.505-0.561c-0.357-0.374-0.535-0.867-0.535-1.479v-2.754
			c-0.748,1.564-1.845,2.771-3.289,3.621c-1.445,0.85-3.137,1.275-5.075,1.275c-2.177,0-4.097-0.543-5.763-1.632
			c-1.666-1.088-2.958-2.609-3.876-4.564c-0.918-1.955-1.377-4.225-1.377-6.809c0-2.55,0.459-4.794,1.377-6.732
			s2.21-3.434,3.876-4.488c1.666-1.053,3.586-1.581,5.763-1.581c1.938,0,3.63,0.426,5.075,1.275c1.444,0.85,2.541,2.057,3.289,3.621
			V17.562c0-0.612,0.178-1.096,0.535-1.453c0.357-0.357,0.858-0.536,1.505-0.536C191.313,15.573,191.823,15.76,192.198,16.134z
			 M186.665,46.249c1.308-1.648,1.963-3.986,1.963-7.012c0-3.026-0.655-5.355-1.963-6.987c-1.311-1.632-3.172-2.448-5.585-2.448
			c-2.415,0-4.293,0.816-5.636,2.448c-1.344,1.632-2.015,3.927-2.015,6.885c0,3.026,0.671,5.38,2.015,7.063
			c1.343,1.683,3.221,2.524,5.636,2.524C183.493,48.723,185.354,47.899,186.665,46.249z"/>
		<path fill="#4B4A4B" d="M220.095,26.487c0.51,0,0.969,0.17,1.377,0.51c0.407,0.34,0.611,0.765,0.611,1.275
			c0,0.306-0.068,0.579-0.204,0.816l-14.331,30.906c-0.17,0.374-0.416,0.663-0.739,0.867s-0.655,0.306-0.995,0.306
			c-0.51,0-0.961-0.162-1.352-0.484c-0.391-0.323-0.586-0.739-0.586-1.25c0-0.272,0.068-0.544,0.204-0.816l3.569-7.701
			l-10.098-21.828c-0.137-0.238-0.203-0.493-0.203-0.765c0-0.51,0.229-0.952,0.688-1.326c0.459-0.374,0.961-0.561,1.505-0.561
			c0.339,0,0.671,0.102,0.995,0.306c0.322,0.204,0.568,0.493,0.738,0.867l8.518,19.125l8.518-19.023
			C218.683,26.895,219.278,26.487,220.095,26.487z"/>
		<path fill="#3D89C9" d="M233.659,49.972c-2.481-1.479-4.395-3.604-5.736-6.375c-1.344-2.771-2.016-6.043-2.016-9.817
			c0-3.74,0.672-6.995,2.016-9.767c1.342-2.771,3.255-4.896,5.736-6.375c2.482-1.479,5.424-2.218,8.824-2.218
			c2.277,0,4.428,0.366,6.451,1.096c2.022,0.731,3.781,1.777,5.278,3.137c0.544,0.51,0.815,1.105,0.815,1.785
			c0,0.477-0.136,0.893-0.407,1.25c-0.272,0.357-0.596,0.536-0.97,0.536c-0.408,0-0.9-0.187-1.479-0.561
			c-1.734-1.359-3.307-2.312-4.717-2.856c-1.412-0.543-3.035-0.816-4.871-0.816c-3.945,0-6.979,1.284-9.104,3.851
			c-2.125,2.567-3.188,6.214-3.188,10.939c0,4.76,1.063,8.424,3.188,10.99c2.125,2.568,5.158,3.851,9.104,3.851
			c1.802,0,3.417-0.271,4.845-0.816c1.429-0.543,3.009-1.496,4.743-2.856c0.578-0.374,1.07-0.561,1.479-0.561
			c0.374,0,0.697,0.17,0.97,0.51c0.271,0.34,0.407,0.765,0.407,1.275c0,0.68-0.271,1.275-0.815,1.785
			c-1.497,1.36-3.256,2.406-5.278,3.137c-2.023,0.73-4.174,1.097-6.451,1.097C239.083,52.191,236.142,51.451,233.659,49.972z"/>
		<path fill="#3D89C9" d="M280.12,36.125v13.872c0,0.612-0.178,1.105-0.535,1.479c-0.357,0.374-0.842,0.561-1.453,0.561
			c-0.612,0-1.105-0.187-1.479-0.561c-0.374-0.374-0.561-0.867-0.561-1.479V47.55c-0.646,1.462-1.632,2.593-2.958,3.392
			c-1.326,0.799-2.856,1.198-4.59,1.198c-1.599,0-3.069-0.323-4.412-0.969c-1.344-0.646-2.405-1.547-3.188-2.703
			c-0.782-1.156-1.173-2.431-1.173-3.825c0-1.869,0.476-3.323,1.428-4.36c0.952-1.037,2.516-1.785,4.692-2.244
			c2.176-0.459,5.202-0.688,9.078-0.688h1.122v-1.683c0-2.04-0.417-3.536-1.25-4.488c-0.833-0.952-2.185-1.428-4.055-1.428
			c-2.313,0-4.658,0.63-7.038,1.887c-0.918,0.579-1.563,0.867-1.938,0.867c-0.408,0-0.748-0.153-1.021-0.459
			c-0.272-0.306-0.407-0.697-0.407-1.173c0-0.476,0.144-0.893,0.434-1.25c0.288-0.357,0.756-0.722,1.402-1.096
			c1.189-0.68,2.541-1.215,4.055-1.606c1.512-0.391,3.017-0.587,4.513-0.587C277.01,26.333,280.12,29.598,280.12,36.125z
			 M274.128,46.81c1.309-1.377,1.964-3.153,1.964-5.329v-1.479h-0.918c-2.992,0-5.271,0.127-6.834,0.382
			c-1.564,0.255-2.678,0.681-3.341,1.275c-0.663,0.595-0.994,1.471-0.994,2.626c0,1.326,0.484,2.422,1.453,3.29s2.185,1.3,3.646,1.3
			C271.145,48.875,272.818,48.187,274.128,46.81z"/>
		<path fill="#3D89C9" d="M302.102,28.17c0,0.544-0.152,0.978-0.459,1.3c-0.306,0.324-0.833,0.519-1.581,0.586l-1.529,0.153
			c-2.278,0.204-3.971,1.012-5.075,2.423c-1.105,1.411-1.657,3.069-1.657,4.972v12.393c0,0.681-0.188,1.191-0.562,1.53
			s-0.866,0.51-1.479,0.51s-1.114-0.178-1.505-0.535c-0.391-0.357-0.586-0.858-0.586-1.505V28.476c0-0.646,0.204-1.147,0.611-1.504
			c0.408-0.357,0.901-0.536,1.479-0.536c0.543,0,1.003,0.179,1.377,0.536s0.561,0.841,0.561,1.454v2.856
			c0.715-1.496,1.726-2.634,3.035-3.417c1.309-0.782,2.813-1.241,4.514-1.377l0.714-0.051
			C301.388,26.333,302.102,26.912,302.102,28.17z"/>
		<path fill="#3D89C9" d="M326.632,16.134c0.374,0.375,0.562,0.85,0.562,1.428v32.436c0,0.612-0.188,1.105-0.562,1.479
			c-0.374,0.374-0.885,0.561-1.53,0.561s-1.147-0.187-1.504-0.561c-0.357-0.374-0.536-0.867-0.536-1.479v-2.754
			c-0.748,1.564-1.845,2.771-3.289,3.621c-1.445,0.85-3.137,1.275-5.074,1.275c-2.177,0-4.098-0.543-5.764-1.632
			c-1.666-1.088-2.958-2.609-3.876-4.564c-0.918-1.955-1.377-4.225-1.377-6.809c0-2.55,0.459-4.794,1.377-6.732
			s2.21-3.434,3.876-4.488c1.666-1.053,3.587-1.581,5.764-1.581c1.938,0,3.629,0.426,5.074,1.275
			c1.444,0.85,2.541,2.057,3.289,3.621V17.562c0-0.612,0.179-1.096,0.536-1.453c0.356-0.357,0.858-0.536,1.504-0.536
			S326.258,15.76,326.632,16.134z M321.099,46.249c1.309-1.648,1.963-3.986,1.963-7.012c0-3.026-0.654-5.355-1.963-6.987
			c-1.31-1.632-3.171-2.448-5.585-2.448s-4.293,0.816-5.635,2.448c-1.344,1.632-2.015,3.927-2.015,6.885
			c0,3.026,0.671,5.38,2.015,7.063c1.342,1.683,3.221,2.524,5.635,2.524S319.789,47.899,321.099,46.249z"/>
		<path fill="#3D89C9" d="M338.744,51.579c-1.411-0.374-2.661-0.9-3.749-1.581c-0.611-0.408-1.045-0.791-1.3-1.147
			s-0.383-0.791-0.383-1.3c0-0.441,0.128-0.807,0.383-1.097c0.255-0.289,0.586-0.434,0.994-0.434s1.003,0.255,1.785,0.765
			c1.02,0.612,2.031,1.097,3.034,1.454s2.252,0.536,3.749,0.536c1.836,0,3.264-0.323,4.284-0.969
			c1.02-0.646,1.529-1.581,1.529-2.805c0-0.747-0.187-1.351-0.561-1.81c-0.375-0.459-1.021-0.867-1.938-1.224
			s-2.261-0.722-4.028-1.097c-2.992-0.646-5.135-1.512-6.427-2.601c-1.292-1.087-1.938-2.566-1.938-4.437
			c0-1.461,0.408-2.754,1.224-3.876c0.816-1.122,1.946-2.005,3.392-2.652c1.445-0.646,3.086-0.969,4.922-0.969
			c1.326,0,2.608,0.179,3.851,0.536c1.24,0.357,2.337,0.859,3.289,1.504c1.155,0.816,1.734,1.667,1.734,2.55
			c0,0.442-0.137,0.816-0.408,1.122c-0.272,0.306-0.596,0.459-0.969,0.459c-0.408,0-1.021-0.289-1.836-0.867
			c-0.952-0.612-1.854-1.088-2.703-1.428c-0.851-0.339-1.904-0.51-3.162-0.51c-1.599,0-2.882,0.357-3.851,1.071
			c-0.969,0.714-1.453,1.667-1.453,2.856c0,0.748,0.178,1.351,0.535,1.81s0.951,0.867,1.785,1.224
			c0.832,0.357,2.031,0.706,3.596,1.045c2.312,0.51,4.105,1.071,5.38,1.683c1.275,0.612,2.185,1.36,2.729,2.244
			c0.544,0.884,0.816,2.006,0.816,3.366c0,2.142-0.901,3.868-2.703,5.177c-1.803,1.309-4.182,1.963-7.14,1.963
			C341.643,52.14,340.154,51.953,338.744,51.579z"/>
	</g>
</g>
<g id="Text_Alt" display="none">
	<text transform="matrix(0.9 0 0 1 87.9482 50)" display="inline"><tspan x="0" y="0" font-family="'MonofurForPowerline'" font-size="51">Study</tspan><tspan x="127.5" y="0" fill="#3D89C9" font-family="'MonofurForPowerline'" font-size="51">Cards</tspan></text>
</g>
<g id="Text_Alt_copy">
	<g>
		<path d="M109.464,40.448c0,2.879-1.16,5.24-3.48,7.084c-2.092,1.66-4.482,2.489-7.172,2.489c-1.747,0-3.443-0.384-5.088-1.151
			c-1.797-0.853-3.148-2.018-4.055-3.496c-0.203-0.327-0.306-0.653-0.306-0.98c0-0.426,0.149-0.799,0.45-1.119
			c0.299-0.32,0.646-0.479,1.042-0.479c0.37,0,0.739,0.221,1.108,0.662c0.18,0.256,0.459,0.599,0.842,1.025
			c1.556,1.566,3.558,2.35,6.006,2.35c1.861,0,3.569-0.532,5.125-1.597c1.772-1.234,2.658-2.831,2.658-4.789
			c0-1.958-0.886-3.555-2.658-4.79c-1.543-1.064-3.251-1.596-5.125-1.596c-2.231,0-4.215-0.694-5.948-2.083
			c-1.913-1.53-2.868-3.492-2.868-5.886s0.955-4.356,2.868-5.886c1.733-1.388,3.717-2.083,5.948-2.083
			c1.428,0,2.817,0.319,4.169,0.956c1.479,0.694,2.595,1.644,3.347,2.848c0.229,0.326,0.344,0.652,0.344,0.978
			c0,0.425-0.156,0.797-0.468,1.116c-0.313,0.319-0.659,0.478-1.042,0.478c-0.357,0-0.734-0.212-1.129-0.638
			c-1.492-1.7-3.232-2.55-5.221-2.55c-1.416,0-2.716,0.397-3.902,1.19c-1.377,0.907-2.059,2.104-2.046,3.591
			c0,1.474,0.683,2.67,2.046,3.591c1.187,0.793,2.486,1.19,3.902,1.19c2.689,0,5.08,0.83,7.172,2.489
			C108.304,35.208,109.464,37.569,109.464,40.448z"/>
		<path d="M132.433,45.203c0,0.299-0.102,0.625-0.306,0.981c-0.676,1.151-1.683,2.089-3.021,2.814
			c-1.274,0.682-2.563,1.023-3.863,1.023c-2.372,0-4.399-0.936-6.081-2.808c-1.684-1.872-2.525-4.127-2.525-6.765v-9.573h-2.869
			c-0.955,0-1.434-0.531-1.434-1.594s0.479-1.594,1.434-1.594h2.869v-7.969c0-1.063,0.479-1.594,1.435-1.594
			s1.435,0.531,1.435,1.594v7.969h7.172c0.956,0,1.434,0.531,1.434,1.594s-0.478,1.594-1.434,1.594h-7.172v9.575
			c0,1.759,0.561,3.263,1.683,4.511s2.474,1.873,4.055,1.873c1.071,0,2.001-0.278,2.792-0.834c0.383-0.271,0.938-0.792,1.664-1.562
			c0.51-0.556,0.924-0.834,1.243-0.834c0.382,0,0.727,0.16,1.032,0.48C132.28,44.404,132.433,44.776,132.433,45.203z"/>
		<path d="M154.407,39.918c0,2.793-0.887,5.176-2.658,7.147c-1.772,1.971-3.914,2.957-6.426,2.957s-4.654-0.986-6.426-2.957
			c-1.772-1.971-2.658-4.354-2.658-7.147V29.283c0-1.063,0.478-1.595,1.434-1.595c0.957,0,1.435,0.532,1.435,1.595V39.92
			c0,1.9,0.608,3.528,1.827,4.882c1.217,1.354,2.68,2.032,4.389,2.032s3.172-0.677,4.389-2.032c1.218-1.354,1.826-2.982,1.826-4.882
			V29.283c0-1.063,0.479-1.595,1.436-1.595c0.955,0,1.434,0.532,1.434,1.595V39.918z"/>
		<path d="M176.421,48.426c0,1.063-0.479,1.595-1.435,1.595c-0.702,0-1.142-0.343-1.319-1.027c-0.076-0.3-0.115-0.97-0.115-2.012
			c-1.734,2.026-3.806,3.039-6.215,3.039c-2.615,0-4.801-1.149-6.561-3.446c-1.684-2.197-2.524-4.771-2.524-7.721
			c0-2.935,0.841-5.509,2.524-7.721c1.76-2.297,3.945-3.446,6.561-3.446c2.409,0,4.48,1.006,6.215,3.018V19.719
			c0-1.063,0.479-1.594,1.435-1.594s1.435,0.532,1.435,1.595V48.426z M173.552,38.854c0.013-2.071-0.542-3.879-1.664-5.426
			c-1.211-1.702-2.729-2.553-4.551-2.553c-1.812,0-3.322,0.852-4.533,2.553c-1.122,1.561-1.684,3.37-1.684,5.426
			c0,2.071,0.562,3.88,1.684,5.426c1.211,1.703,2.722,2.554,4.533,2.554c1.81,0,3.327-0.851,4.551-2.554
			C173.01,42.734,173.564,40.926,173.552,38.854z"/>
		<path d="M199.37,29.281V50c0,2.635-0.842,4.888-2.524,6.757c-1.683,1.87-3.71,2.805-6.081,2.805c-1.506,0-2.927-0.425-4.266-1.275
			c-1.402-0.878-2.461-2.033-3.175-3.464c-0.14-0.297-0.21-0.574-0.21-0.829c0-0.425,0.152-0.801,0.459-1.126
			c0.306-0.326,0.65-0.489,1.033-0.489c0.433,0,0.834,0.276,1.204,0.829c1.428,2.11,3.079,3.166,4.954,3.166
			c1.58,0,2.932-0.624,4.054-1.87s1.683-2.749,1.683-4.505v-2.444c-1.632,1.644-3.544,2.465-5.736,2.465
			c-2.372,0-4.399-0.936-6.082-2.808c-1.684-1.872-2.525-4.126-2.525-6.764V29.283c0-1.063,0.479-1.595,1.436-1.595
			c0.955,0,1.434,0.531,1.434,1.594v11.156c0,1.757,0.561,3.259,1.684,4.505c1.121,1.247,2.473,1.87,4.055,1.87
			c1.58,0,2.932-0.623,4.054-1.87c1.122-1.246,1.683-2.741,1.683-4.483V29.281c0-1.063,0.479-1.594,1.436-1.594
			C198.892,27.688,199.37,28.219,199.37,29.281z"/>
		<path fill="#3D89C9" d="M224.233,44.204c0,0.313-0.109,0.646-0.326,1.001c-0.893,1.421-2.1,2.579-3.623,3.474
			c-1.524,0.896-3.07,1.343-4.639,1.343c-3.455,0-6.299-1.744-8.529-5.231c-1.989-3.133-2.983-6.706-2.983-10.717
			c0-3.998,0.994-7.57,2.983-10.717c2.23-3.487,5.074-5.231,8.529-5.231c1.568,0,3.114,0.45,4.639,1.35
			c1.523,0.899,2.73,2.05,3.623,3.453c0.23,0.354,0.338,0.687,0.326,0.999c0,0.425-0.15,0.8-0.449,1.126
			c-0.301,0.326-0.648,0.488-1.043,0.488c-0.242,0-0.533-0.13-0.87-0.393c-0.338-0.262-0.539-0.513-0.603-0.754
			c-0.013-0.028-0.146-0.191-0.401-0.489c-1.556-1.728-3.296-2.592-5.222-2.592c-1.771,0-3.397,0.759-4.877,2.276
			c-1.313,1.333-2.295,3.02-2.945,5.062c-0.548,1.702-0.822,3.509-0.822,5.423c0,1.928,0.274,3.736,0.822,5.423
			c0.663,2.027,1.639,3.715,2.927,5.062c1.479,1.517,3.11,2.276,4.896,2.276c1.913,0,3.653-0.869,5.222-2.605
			c0.114-0.1,0.249-0.256,0.401-0.47c0.013-0.213,0.207-0.462,0.584-0.747c0.375-0.285,0.672-0.427,0.889-0.427
			c0.383,0,0.727,0.163,1.033,0.49C224.08,43.4,224.233,43.777,224.233,44.204z"/>
		<path fill="#3D89C9" d="M246.228,48.426c0,1.064-0.479,1.596-1.436,1.596c-0.981,0-1.459-0.751-1.434-2.253
			c-1.887,1.502-4.119,2.253-6.693,2.253c-2.359,0-4.47-0.66-6.331-1.979c-2.155-1.532-3.231-3.532-3.231-6
			c0-2.454,1.076-4.454,3.231-6c1.861-1.319,3.972-1.979,6.331-1.979c2.574,0,4.807,0.744,6.693,2.231v-0.638
			c0-0.638-0.198-1.268-0.594-1.891c-1.186-1.927-3.219-2.89-6.1-2.89c-1.658,0-3.297,0.524-4.916,1.572
			c-0.332,0.213-0.618,0.319-0.86,0.319c-0.382,0-0.718-0.166-1.004-0.499c-0.287-0.333-0.431-0.719-0.431-1.158
			c0-1.034,1.001-1.905,3.003-2.614c1.556-0.539,2.958-0.808,4.208-0.808c2.346,0,4.455,0.659,6.33,1.978
			c2.154,1.532,3.232,3.531,3.232,5.999V48.426z M243.358,42.042c0-1.008-0.434-1.938-1.301-2.79
			c-0.727-0.71-1.588-1.228-2.582-1.555c-0.867-0.298-1.805-0.447-2.811-0.447c-2.959,0-5.018,1.008-6.178,3.024
			c-0.345,0.597-0.517,1.186-0.517,1.768s0.172,1.171,0.517,1.768c1.16,2.016,3.219,3.024,6.178,3.024
			c1.006,0,1.943-0.149,2.811-0.447c1.008-0.327,1.867-0.845,2.582-1.555C242.925,43.98,243.358,43.05,243.358,42.042z"/>
		<path fill="#3D89C9" d="M270.134,32.851c0,0.425-0.15,0.797-0.451,1.116c-0.299,0.319-0.646,0.478-1.041,0.478
			c-0.357,0-0.709-0.205-1.053-0.616c-1.76-1.969-3.627-2.954-5.604-2.954s-3.666,0.78-5.068,2.34s-2.104,3.439-2.104,5.637v9.573
			c0,1.064-0.479,1.596-1.434,1.596c-0.957,0-1.436-0.532-1.436-1.596V29.283c0-1.063,0.479-1.595,1.436-1.595
			c0.727,0,1.186,0.397,1.377,1.19c0.051,0.255,0.07,0.978,0.057,2.167c1.963-2.238,4.354-3.357,7.172-3.357
			c1.453,0,2.9,0.369,4.342,1.105c1.529,0.765,2.678,1.778,3.441,3.039C270.011,32.214,270.134,32.554,270.134,32.851z"/>
		<path fill="#3D89C9" d="M291.17,48.426c0,1.063-0.478,1.595-1.435,1.595c-0.701,0-1.141-0.343-1.319-1.027
			c-0.076-0.3-0.114-0.97-0.114-2.012c-1.734,2.026-3.807,3.039-6.216,3.039c-2.614,0-4.801-1.149-6.561-3.446
			c-1.683-2.197-2.524-4.771-2.524-7.721c0-2.935,0.842-5.509,2.524-7.721c1.76-2.297,3.946-3.446,6.561-3.446
			c2.409,0,4.481,1.006,6.216,3.018V19.719c0-1.063,0.478-1.594,1.434-1.594c0.957,0,1.435,0.532,1.435,1.595V48.426z
			 M288.302,38.854c0.012-2.071-0.543-3.879-1.664-5.426c-1.212-1.702-2.729-2.553-4.552-2.553c-1.811,0-3.321,0.852-4.533,2.553
			c-1.122,1.561-1.683,3.37-1.683,5.426c0,2.071,0.561,3.88,1.683,5.426c1.212,1.703,2.723,2.554,4.533,2.554
			s3.327-0.851,4.552-2.554C287.759,42.734,288.313,40.926,288.302,38.854z"/>
		<path fill="#3D89C9" d="M314.694,42.828c0,2.284-1.026,4.1-3.079,5.448c-1.747,1.164-3.711,1.746-5.891,1.746
			c-1.633,0-3.194-0.348-4.686-1.045c-1.722-0.81-2.92-1.932-3.596-3.368c-0.141-0.298-0.21-0.576-0.21-0.832
			c0-0.426,0.152-0.795,0.459-1.108c0.306-0.313,0.649-0.469,1.032-0.469c0.434,0,0.835,0.278,1.205,0.833
			c1.249,1.867,3.181,2.8,5.795,2.8c2.575,0,4.411-0.789,5.508-2.365c0.383-0.583,0.58-1.129,0.593-1.641
			c0-0.866-0.446-1.669-1.339-2.408c-0.714-0.568-1.529-0.98-2.448-1.236c-0.765-0.227-1.632-0.341-2.601-0.341
			c-1.645,0-3.117-0.453-4.418-1.36c-1.505-1.063-2.257-2.472-2.257-4.229c0-1.742,0.777-3.145,2.333-4.208
			c1.326-0.906,2.824-1.36,4.495-1.36c1.045,0,2.084,0.206,3.117,0.616c1.186,0.468,2.053,1.112,2.601,1.934
			c0.255,0.369,0.383,0.709,0.383,1.02c0,0.425-0.15,0.801-0.449,1.126c-0.3,0.326-0.647,0.489-1.043,0.489
			c-0.165,0-0.691-0.333-1.577-0.999c-0.887-0.666-1.896-0.999-3.031-0.999c-1.734,0-2.952,0.524-3.653,1.572
			c-0.204,0.284-0.306,0.553-0.306,0.808c0,1.006,0.797,1.729,2.391,2.167c0.535,0.156,1.173,0.234,1.912,0.234
			c2.143,0,4.067,0.589,5.776,1.767C313.699,38.799,314.694,40.601,314.694,42.828z"/>
	</g>
</g>
<g id="Cards">
	<g>
		<path fill="#3D89C9" d="M46.401,63.139c0.29,1.532-0.726,3.022-2.258,3.313l-26.737,5.061c-1.532,0.29-3.022-0.726-3.313-2.258
			L2.957,10.418c-0.29-1.532,0.726-3.022,2.258-3.313l26.736-5.061c1.532-0.29,3.022,0.726,3.313,2.258L46.401,63.139z"/>
	</g>
	<path fill="#3D89C9" d="M64.065,13.123L44.692,6.387l-3.248-1.129l4.998,26.403l4.471,23.617c0,0.001,0,0.001,0.001,0.002
		l0.526,2.783L63.633,23l0,0l2.18-6.269C66.324,15.259,65.538,13.635,64.065,13.123z"/>
	<g>
		<path fill="#3D89C9" d="M78.377,37.539l-8.146-9.438c-0.001-0.001-0.001-0.001-0.002-0.002l-1.851-2.144l-5.993,17.153
			l-5.058,14.477c-0.001,0.002-0.001,0.004-0.002,0.007l-0.933,2.669l3.113-2.687l18.578-16.037
			C79.264,40.519,79.396,38.719,78.377,37.539z"/>
	</g>
</g>
</svg>
