<?xml version="1.0" encoding="utf-8"?>
<!-- Generator: Adobe Illustrator 16.0.0, SVG Export Plug-In . SVG Version: 6.00 Build 0)  -->
<!DOCTYPE svg PUBLIC "-//W3C//DTD SVG 1.1//EN" "http://www.w3.org/Graphics/SVG/1.1/DTD/svg11.dtd">
<svg version="1.1" xmlns="http://www.w3.org/2000/svg" xmlns:xlink="http://www.w3.org/1999/xlink" x="0px" y="0px"
	 width="360.72px" height="72.04px" viewBox="0 0 360.72 72.04" enable-background="new 0 0 360.72 72.04" xml:space="preserve">
<g id="Text">
	<g id="Layer_1">
		<path fill="#3D89C9" d="M-195.218,80c-1.051,6.627-7.274,12-13.901,12h-183.5c-6.628,0-11.149-5.373-10.099-12l8.875-56
			c1.051-6.627,7.274-12,13.902-12h183.5c6.627,0,11.148,5.373,10.098,12L-195.218,80z"/>
	</g>
	<g id="Layer_2">
		<text transform="matrix(1 0 0 1 -587.7803 75.5)"><tspan x="0" y="0" font-family="'IBMPlexSans-Italic'" font-size="72">Study </tspan><tspan x="198.861" y="0" fill="#FFFFFF" font-family="'IBMPlexSans-Italic'" font-size="72">Cards</tspan></text>
		<path fill="#3D89C9" d="M-195.218,200c-1.051,6.627-7.274,12-13.901,12h-183.5c-6.628,0-11.149-5.373-10.099-12l8.875-56
			c1.051-6.627,7.274-12,13.902-12h183.5c6.627,0,11.148,5.373,10.098,12L-195.218,200z"/>
		<text transform="matrix(1 0 0 1 -595.7803 195.5)"><tspan x="0" y="0" font-family="'IBMPlexSans-BoldItalic'" font-size="72">Study </tspan><tspan x="205.771" y="0" fill="#FFFFFF" font-family="'IBMPlexSans-BoldItalic'" font-size="72">Cards</tspan></text>
	</g>
	<g>
		<path fill="#3D89C9" d="M-527.173,336.547c-2.353,2.046-5.952,1.795-7.998-0.558l-18.083-20.796
			c-2.046-2.353-1.795-5.952,0.558-7.999l25.981-22.592c2.353-2.046,5.952-1.795,7.998,0.558l18.083,20.795
			c2.046,2.353,1.795,5.953-0.558,7.999L-527.173,336.547z"/>
		<path fill="none" stroke="#FFFFFF" stroke-width="6" stroke-miterlimit="10" d="M-527.173,336.547
			c-2.353,2.046-5.952,1.795-7.998-0.558l-18.083-20.796c-2.046-2.353-1.795-5.952,0.558-7.999l25.981-22.592
			c2.353-2.046,5.952-1.795,7.998,0.558l18.083,20.795c2.046,2.353,1.795,5.953-0.558,7.999L-527.173,336.547z"/>
	</g>
	<g>
		<path fill="#3D89C9" d="M-529.637,334.896c-1.015,2.948-4.257,4.531-7.206,3.516l-26.058-8.968
			c-2.949-1.015-4.531-4.257-3.516-7.206l16.171-46.988c1.015-2.949,4.257-4.531,7.206-3.516l26.058,8.968
			c2.949,1.015,4.531,4.257,3.516,7.206L-529.637,334.896z"/>
		<path fill="none" stroke="#FFFFFF" stroke-width="6" stroke-miterlimit="10" d="M-529.637,334.896
			c-1.015,2.948-4.257,4.531-7.206,3.516l-26.058-8.968c-2.949-1.015-4.531-4.257-3.516-7.206l16.171-46.988
			c1.015-2.949,4.257-4.531,7.206-3.516l26.058,8.968c2.949,1.015,4.531,4.257,3.516,7.206L-529.637,334.896z"/>
	</g>
	<g>
		<path fill="#3D89C9" d="M-531.807,332.798c0.595,3.061-1.422,6.052-4.482,6.647l-27.051,5.262
			c-3.061,0.595-6.052-1.422-6.647-4.482l-11.481-59.015c-0.595-3.061,1.422-6.052,4.482-6.647l27.051-5.263
			c3.061-0.595,6.052,1.422,6.647,4.482L-531.807,332.798z"/>
		<path fill="none" stroke="#FFFFFF" stroke-width="6" stroke-miterlimit="10" d="M-531.807,332.798
			c0.595,3.061-1.422,6.052-4.482,6.647l-27.051,5.262c-3.061,0.595-6.052-1.422-6.647-4.482l-11.481-59.015
			c-0.595-3.061,1.422-6.052,4.482-6.647l27.051-5.263c3.061-0.595,6.052,1.422,6.647,4.482L-531.807,332.798z"/>
	</g>
	<text transform="matrix(1 0 0 1 -491.9141 322)"><tspan x="0" y="0" font-family="'OpenSans'" font-size="51">Study</tspan><tspan x="134.249" y="0" fill="#3D89C9" font-family="'OpenSans'" font-size="51">Cards</tspan></text>
	<text transform="matrix(1 0 0 1 89.6367 52.5103)"><tspan x="0" y="0" font-family="'Vision-Regular'" font-size="54.3833">Study</tspan><tspan x="135.738" y="0" fill="#3D89C9" font-family="'Vision-Regular'" font-size="54.3833">Cards</tspan></text>
</g>
<g id="Cards" display="none">
	<g display="inline">
		<path fill="#3D89C9" d="M46.401,63.139c0.29,1.532-0.726,3.022-2.258,3.313l-26.737,5.061c-1.532,0.29-3.022-0.726-3.313-2.258
			L2.957,10.418c-0.29-1.532,0.726-3.022,2.258-3.313l26.736-5.061c1.532-0.29,3.022,0.726,3.313,2.258L46.401,63.139z"/>
	</g>
	<path display="inline" fill="#3D89C9" d="M63.824,13.328L44.451,6.591l-3.248-1.129l4.998,26.403l4.471,23.617
		c0,0.001,0,0.001,0.001,0.002l0.526,2.783l12.192-35.063l0,0l2.18-6.269C66.083,15.463,65.297,13.84,63.824,13.328z"/>
	<g display="inline">
		<path fill="#3D89C9" d="M78.377,37.539l-8.146-9.438c-0.001-0.001-0.001-0.001-0.002-0.002l-1.851-2.144l-5.993,17.153
			l-5.058,14.477c-0.001,0.002-0.001,0.004-0.002,0.007l-0.933,2.669l3.113-2.687l18.578-16.037
			C79.264,40.519,79.396,38.719,78.377,37.539z"/>
	</g>
</g>
<g id="Cards_copy">
	<g>
		<path fill="#3D89C9" d="M46.401,63.139c0.29,1.532-0.726,3.022-2.258,3.313l-26.737,5.061c-1.532,0.29-3.022-0.726-3.313-2.258
			L2.957,10.418c-0.29-1.532,0.726-3.022,2.258-3.313l26.736-5.061c1.532-0.29,3.022,0.726,3.313,2.258L46.401,63.139z"/>
	</g>
	<path fill="#3D89C9" d="M65.824,13.328L46.451,6.591l-2.147-0.747l9.88,49.591l11.208-32.231l2.18-6.269
		C68.083,15.463,67.297,13.84,65.824,13.328z"/>
	<g>
		<path fill="#3D89C9" d="M72.021,30.174l-8.404,23.852l14.468-12.489c1.18-1.019,1.313-2.818,0.293-3.998L72.021,30.174z"/>
	</g>
</g>
</svg>
